<svg xmlns="http://www.w3.org/2000/svg" xmlns:xlink="http://www.w3.org/1999/xlink" width="400" zoomAndPan="magnify" viewBox="0 0 300 74.999997" height="100" preserveAspectRatio="xMidYMid meet" version="1.0"><defs><g/></defs><g fill="#ffffff" fill-opacity="1"><g transform="translate(19.525378, 59.472801)"><g><path d="M 35.9375 -8.09375 L 18.15625 -8.09375 C 17.015625 -8.09375 16.078125 -8.203125 15.3125 -8.484375 C 14.65625 -8.703125 14.109375 -9.078125 13.734375 -9.6875 C 13.296875 -10.28125 12.96875 -11.109375 12.796875 -12.09375 C 12.578125 -13.1875 12.53125 -14.546875 12.53125 -16.1875 L 12.53125 -43.15625 C 12.53125 -44.90625 11.4375 -45.0625 11 -45.0625 L 5.96875 -45.0625 C 5.46875 -45.0625 4.375 -44.90625 4.375 -43.15625 L 4.375 -17.125 C 4.375 -14.0625 4.65625 -11.4375 5.140625 -9.296875 C 5.640625 -7.109375 6.40625 -5.3125 7.5 -3.9375 C 8.59375 -2.515625 10.015625 -1.484375 11.765625 -0.875 C 13.40625 -0.28125 15.484375 0.0625 17.890625 0.0625 L 35.9375 0.0625 C 36.421875 0.0625 37.46875 -0.171875 37.46875 -1.859375 L 37.46875 -6.1875 C 37.46875 -7.875 36.421875 -8.09375 35.9375 -8.09375 Z M 35.9375 -8.09375 "/></g></g></g><g fill="#ffffff" fill-opacity="1"><g transform="translate(64.096741, 59.472801)"><g><path d="M 10.9375 -45.0625 L 5.90625 -45.0625 C 5.46875 -45.0625 4.375 -44.84375 4.375 -43.15625 L 4.375 -1.859375 C 4.375 -0.171875 5.46875 0.0625 5.90625 0.0625 L 10.9375 0.0625 C 11.375 0.0625 12.46875 -0.171875 12.46875 -1.859375 L 12.46875 -43.15625 C 12.46875 -44.84375 11.375 -45.0625 10.9375 -45.0625 Z M 10.9375 -45.0625 "/></g></g></g><g fill="#ffffff" fill-opacity="1"><g transform="translate(83.675324, 59.472801)"><g><path d="M 30.796875 -26.90625 L 14.390625 -26.90625 C 13.5625 -26.90625 12.53125 -27.234375 12.53125 -29.921875 L 12.53125 -33.96875 C 12.53125 -34.953125 12.6875 -35.71875 12.96875 -36.265625 C 13.1875 -36.59375 13.515625 -36.96875 14.4375 -36.96875 L 36.703125 -36.96875 C 37.140625 -36.96875 38.234375 -37.140625 38.234375 -38.828125 L 38.234375 -43.203125 C 38.234375 -44.90625 37.140625 -45.0625 36.703125 -45.0625 L 13.125 -45.0625 C 10.125 -45.0625 7.9375 -44.078125 6.515625 -42.0625 C 5.09375 -40.09375 4.375 -37.46875 4.375 -34.296875 L 4.375 -30.140625 C 4.375 -26.359375 5.140625 -23.296875 6.515625 -21.390625 C 8.203125 -19.140625 10.71875 -18.8125 13.015625 -18.8125 L 29.421875 -18.8125 C 30.25 -18.8125 31.34375 -18.484375 31.34375 -15.8125 L 31.34375 -11.109375 C 31.34375 -10.125 31.171875 -9.359375 30.84375 -8.8125 C 30.625 -8.484375 30.296875 -8.09375 29.375 -8.09375 L 6.015625 -8.09375 C 5.53125 -8.09375 4.4375 -7.9375 4.4375 -6.234375 L 4.4375 -1.859375 C 4.4375 -0.171875 5.53125 0 6.015625 0 L 30.6875 0 C 33.6875 0 35.9375 -1.046875 37.359375 -3.0625 C 38.71875 -5.03125 39.4375 -7.609375 39.4375 -10.78125 L 39.4375 -15.59375 C 39.4375 -19.140625 38.71875 -21.9375 37.296875 -23.90625 C 35.828125 -25.875 33.640625 -26.90625 30.796875 -26.90625 Z M 30.796875 -26.90625 "/></g></g></g><g fill="#ffffff" fill-opacity="1"><g transform="translate(130.215485, 59.472801)"><g><path d="M 42.171875 -45.0625 L 5.96875 -45.0625 C 5.46875 -45.0625 4.375 -44.90625 4.375 -43.203125 L 4.375 -38.9375 C 4.375 -37.140625 5.46875 -36.96875 5.96875 -36.96875 L 20.015625 -36.96875 L 20.015625 -1.859375 C 20.015625 -0.171875 21.109375 0 21.546875 0 L 26.578125 0 C 27.078125 0 28.109375 -0.171875 28.109375 -1.859375 L 28.109375 -36.96875 L 42.171875 -36.96875 C 42.65625 -36.96875 43.75 -37.140625 43.75 -38.9375 L 43.75 -43.203125 C 43.75 -44.90625 42.65625 -45.0625 42.171875 -45.0625 Z M 42.171875 -45.0625 "/></g></g></g><g fill="#ffffff" fill-opacity="1"><g transform="translate(181.076056, 59.472801)"><g><path d="M 37.25 -9.796875 L 18 -9.796875 C 16.84375 -9.796875 15.921875 -9.953125 15.15625 -10.171875 C 14.4375 -10.453125 13.953125 -10.828125 13.515625 -11.375 C 13.078125 -11.984375 12.75 -12.796875 12.578125 -13.84375 C 12.53125 -14.109375 12.53125 -14.5 12.46875 -14.765625 C 12.46875 -14.765625 12.53125 -18.703125 12.578125 -18.703125 L 37.03125 -18.703125 C 37.46875 -18.703125 38.5625 -18.921875 38.5625 -20.625 L 38.5625 -24.9375 C 38.5625 -26.640625 37.46875 -26.796875 37.03125 -26.796875 L 8.8125 -26.75 C 7.21875 -26.640625 5.859375 -25.8125 5.09375 -24.453125 C 4.8125 -24.015625 4.59375 -23.578125 4.484375 -23.078125 L 4.375 -16.1875 L 4.375 -15.921875 C 4.4375 -13.34375 4.703125 -11.15625 5.09375 -9.359375 C 5.578125 -7.171875 6.40625 -5.359375 7.4375 -4 C 8.53125 -2.578125 9.953125 -1.59375 11.703125 -0.984375 C 13.40625 -0.328125 15.421875 -0.0625 17.828125 -0.0625 L 37.25 -0.0625 C 37.734375 -0.0625 38.828125 -0.21875 38.828125 -1.921875 L 38.828125 -7.9375 C 38.828125 -9.625 37.734375 -9.796875 37.25 -9.796875 Z M 37.296875 -45.171875 L 5.859375 -45.171875 C 5.421875 -45.171875 4.375 -44.953125 4.375 -43.203125 L 4.375 -38.9375 C 4.375 -37.25 5.421875 -37.078125 5.859375 -37.078125 L 37.296875 -37.03125 C 37.734375 -37.03125 38.828125 -37.25 38.828125 -38.9375 L 38.828125 -43.265625 C 38.828125 -44.953125 37.734375 -45.171875 37.296875 -45.171875 Z M 37.296875 -45.171875 "/></g></g></g><g fill="#ffffff" fill-opacity="1"><g transform="translate(227.014641, 59.472801)"><g><path d="M 41.671875 -32 C 41.671875 -31.9375 41.671875 -31.890625 41.671875 -31.828125 C 41.671875 -31.78125 41.671875 -31.71875 41.671875 -31.671875 Z M 42.71875 -2.359375 L 33.140625 -18.765625 C 35.828125 -19.09375 37.90625 -20.234375 39.265625 -22.09375 C 40.796875 -24.34375 41.625 -27.5625 41.671875 -31.828125 C 41.625 -36.09375 40.796875 -39.328125 39.265625 -41.5625 C 37.625 -43.921875 34.890625 -45.0625 31.171875 -45.0625 L 5.96875 -45.0625 C 5.46875 -45.0625 4.375 -44.90625 4.375 -43.15625 L 4.375 -38.828125 C 4.375 -37.140625 5.46875 -36.96875 5.96875 -36.96875 L 29.75 -36.96875 C 31.171875 -36.96875 32.109375 -36.59375 32.65625 -35.765625 C 33.25 -34.953125 33.53125 -33.640625 33.53125 -31.828125 C 33.53125 -30.03125 33.25 -28.71875 32.65625 -27.890625 C 32.109375 -27.078125 31.171875 -26.6875 29.75 -26.6875 L 5.96875 -26.6875 C 5.46875 -26.6875 4.375 -26.53125 4.375 -24.828125 L 4.375 -1.859375 C 4.375 -0.171875 5.46875 0.0625 5.96875 0.0625 L 10.9375 0.0625 C 11.4375 0.0625 12.46875 -0.171875 12.46875 -1.859375 L 12.46875 -18.59375 L 24.015625 -18.59375 L 33.90625 -1.046875 C 34.125 -0.71875 34.296875 -0.4375 34.515625 -0.28125 C 34.78125 -0.0625 35.171875 0.0625 35.65625 0.0625 L 41.671875 0.0625 C 42.328125 0.0625 42.828125 -0.390625 42.9375 -1.046875 C 42.984375 -1.59375 42.9375 -2.03125 42.71875 -2.359375 Z M 42.71875 -2.359375 "/></g></g></g></svg>